<?xml version="1.0" standalone="no"?>
<!DOCTYPE svg PUBLIC "-//W3C//DTD SVG 20010904//EN"
 "http://www.w3.org/TR/2001/REC-SVG-20010904/DTD/svg10.dtd">
<svg version="1.0" xmlns="http://www.w3.org/2000/svg"
 width="1000.000000pt" height="220.000000pt" viewBox="0 0 1000.000000 220.000000"
 preserveAspectRatio="xMidYMid meet">

<g transform="translate(0.000000,220.000000) scale(0.100000,-0.100000)"
fill="#000000" stroke="none">
<path d="M117 1923 c-4 -120 -7 -364 -7 -543 0 -291 2 -334 20 -409 75 -310
367 -505 655 -436 123 29 241 102 315 196 55 70 75 111 105 216 l25 88 -2 550
-3 550 -551 3 -551 2 -6 -217z m1061 85 l3 -78 -501 0 -500 0 0 73 c0 41 3 77
7 80 3 4 227 6 497 5 l491 -3 3 -77z m0 -145 l3 -53 -191 0 c-130 0 -189 3
-185 10 4 6 32 25 63 43 l57 32 -138 3 c-75 1 -199 1 -275 0 l-137 -3 50 -27
c108 -57 108 -57 -77 -58 l-168 0 0 55 0 55 498 -2 497 -3 3 -52z m-308 24 c0
-1 -27 -22 -60 -46 -33 -24 -73 -63 -89 -87 l-28 -44 -7 -342 c-3 -189 -9
-420 -12 -515 -7 -183 -10 -192 -57 -177 -20 6 -20 11 -13 523 l7 516 -26 40
c-23 35 -47 56 -140 120 -17 13 10 14 203 15 122 0 222 -1 222 -3z m-301 -129
c22 -30 31 -53 31 -80 l0 -38 -215 0 -215 0 0 49 c0 27 3 63 6 80 l7 31 177 0
178 0 31 -42z m609 -40 l3 -78 -241 0 -240 0 0 33 c0 32 15 62 53 105 21 22
24 22 221 20 l201 -3 3 -77z m-588 -98 c12 -7 12 -12 2 -22 -6 -6 -12 -20 -12
-29 0 -23 -58 -53 -75 -39 -16 13 -58 -31 -53 -57 5 -30 -34 -95 -53 -90 -25
7 -51 -53 -34 -76 17 -23 -2 -105 -27 -118 -22 -12 -26 -87 -4 -95 18 -7 31
-91 16 -108 -15 -19 4 -66 28 -66 19 0 42 -37 42 -69 0 -27 27 -48 42 -33 20
20 66 14 78 -8 8 -15 17 -19 32 -14 20 6 21 4 15 -44 -7 -58 11 -92 47 -92 37
0 48 23 54 115 3 54 10 89 18 96 8 6 14 21 13 33 0 11 -3 15 -6 9 -11 -29 -23
-10 -23 38 0 34 7 63 20 84 77 124 80 333 7 394 -11 9 -17 29 -17 57 0 42 12
64 25 44 5 -8 11 -7 21 1 13 10 12 14 -2 30 -9 10 -22 15 -30 12 -10 -3 -14 2
-14 20 0 14 7 28 16 31 24 9 437 7 452 -3 11 -7 13 -68 10 -322 -4 -291 -6
-319 -27 -381 -45 -138 -157 -259 -290 -315 -60 -25 -77 -28 -191 -28 l-125 0
-86 42 c-136 67 -237 188 -274 328 -12 47 -15 123 -15 365 0 169 3 310 7 313
10 11 396 8 413 -3z m-1 -159 c-26 -8 -91 -77 -111 -115 -87 -170 -53 -376 68
-408 43 -12 44 -13 44 -54 0 -46 -16 -66 -34 -42 -17 22 -45 29 -66 16 -23
-15 -50 4 -50 36 -1 26 -21 54 -36 49 -16 -5 -36 45 -25 65 12 25 2 92 -15 92
-21 0 -17 63 5 89 24 28 36 88 21 106 -14 17 14 77 33 69 16 -6 47 46 47 78 0
32 35 65 52 50 16 -12 50 11 64 43 7 16 9 11 12 -25 2 -29 -1 -46 -9 -49z m6
-88 c-11 -105 -18 -112 -88 -92 -33 9 -37 13 -31 32 15 50 83 127 113 127 11
0 12 -14 6 -67z m155 -23 c5 -19 10 -54 10 -78 0 -41 -1 -43 -27 -40 -27 3
-28 5 -31 73 -2 38 0 81 3 95 6 24 7 24 21 5 8 -10 19 -35 24 -55z m-197 -85
c29 0 36 -3 31 -15 -13 -30 -16 -68 -5 -74 6 -4 11 -18 11 -31 0 -28 -59 -185
-69 -185 -4 0 -16 9 -27 21 -17 19 -17 23 -3 47 67 117 72 132 61 157 -10 21
-18 25 -57 25 -38 0 -45 3 -45 19 0 39 11 51 39 43 14 -4 43 -7 64 -7z m202
-82 c-9 -48 -10 -49 -40 -35 -19 9 -25 19 -25 42 0 28 3 30 36 30 l36 0 -7
-37z m-219 3 c18 -14 18 -17 -21 -90 -22 -42 -43 -76 -47 -76 -12 0 -28 72
-28 128 l0 52 38 0 c21 0 47 -6 58 -14z m202 -61 c4 -4 -37 -85 -43 -85 -3 0
-5 23 -5 51 0 48 1 50 23 43 12 -3 23 -8 25 -9z m-148 -115 c0 -57 -1 -60 -25
-60 -14 0 -25 2 -25 5 0 10 42 115 46 115 2 0 4 -27 4 -60z"/>
<path d="M201 1998 c1 -40 2 -41 9 -13 l7 30 8 -30 8 -30 11 30 10 30 7 -30
c6 -27 7 -26 8 13 1 47 -15 57 -26 15 l-6 -28 -10 28 c-13 41 -27 33 -26 -15z"/>
<path d="M293 2005 c2 -33 6 -40 22 -40 16 0 20 7 22 40 1 38 1 38 -5 7 -4
-18 -11 -33 -17 -33 -5 0 -13 15 -17 33 -6 31 -6 31 -5 -7z"/>
<path d="M350 2030 c0 -5 4 -10 9 -10 6 0 12 -15 14 -32 l4 -33 1 33 c1 17 7
32 12 32 6 0 10 5 10 10 0 6 -11 10 -25 10 -14 0 -25 -4 -25 -10z"/>
<path d="M417 2023 c-10 -29 9 -67 30 -59 8 3 17 6 19 6 2 0 4 17 3 38 -1 39
-3 37 -14 -12 -7 -34 -22 -24 -27 19 -3 28 -4 28 -11 8z"/>
<path d="M496 2016 c-3 -13 -9 -32 -13 -43 -6 -16 -5 -16 10 -4 14 11 20 11
32 1 19 -16 19 -9 1 35 -18 41 -22 43 -30 11z m24 -16 c0 -5 -4 -10 -10 -10
-5 0 -10 5 -10 10 0 6 5 10 10 10 6 0 10 -4 10 -10z"/>
<path d="M553 2005 c2 -29 7 -41 20 -43 9 -2 17 1 17 7 0 6 -5 10 -12 9 -7 -2
-15 12 -19 32 l-7 35 1 -40z"/>
<path d="M640 1998 c0 -49 5 -47 14 5 4 23 3 37 -4 37 -5 0 -10 -19 -10 -42z"/>
<path d="M685 2025 c-5 -11 -13 -23 -19 -27 -8 -5 -7 -11 2 -20 9 -9 12 -9 12
4 0 9 5 18 11 20 6 2 9 13 7 23 -5 20 -5 20 -13 0z"/>
<path d="M724 2026 c-11 -29 1 -61 24 -64 12 -2 22 1 22 7 0 6 -7 11 -15 11
-21 0 -19 20 3 21 14 0 14 2 -3 9 -17 7 -17 9 -2 9 24 1 21 21 -3 21 -11 0
-23 -6 -26 -14z"/>
<path d="M790 2021 c-8 -15 -8 -27 0 -42 13 -23 41 -22 48 1 4 12 3 13 -10 3
-17 -15 -28 -7 -28 20 0 15 5 18 21 14 13 -3 19 -1 16 6 -7 21 -35 19 -47 -2z"/>
<path d="M872 2023 c-15 -27 -16 -56 -2 -48 6 4 17 1 25 -5 18 -15 18 -7 1 40
-12 34 -13 34 -24 13z m18 -23 c0 -5 -5 -10 -11 -10 -5 0 -7 5 -4 10 3 6 8 10
11 10 2 0 4 -4 4 -10z"/>
<path d="M993 2000 c0 -25 2 -35 4 -22 2 12 2 32 0 45 -2 12 -4 2 -4 -23z"/>
<path d="M1032 2028 c-17 -17 -15 -43 4 -58 12 -11 18 -10 32 3 9 10 11 17 5
17 -6 0 -14 -6 -16 -12 -4 -10 -8 -9 -16 2 -15 21 -8 35 17 34 17 0 19 2 11
13 -14 16 -22 16 -37 1z"/>
<path d="M1101 2009 c-15 -43 -14 -54 4 -39 8 6 19 8 26 4 9 -5 10 1 5 22 -11
44 -22 49 -35 13z"/>
<path d="M921 1998 c0 -18 3 -26 6 -18 3 8 10 18 16 21 5 4 6 12 3 18 -14 21
-26 11 -25 -21z"/>
<path d="M960 2019 c0 -5 5 -7 10 -4 6 3 10 8 10 11 0 2 -4 4 -10 4 -5 0 -10
-5 -10 -11z"/>
<path d="M950 1993 c0 -5 5 -15 10 -23 8 -12 10 -11 10 8 0 12 -4 22 -10 22
-5 0 -10 -3 -10 -7z"/>
<path d="M895 1555 c-32 -31 -33 -82 -4 -113 20 -22 20 -27 9 -174 l-12 -151
-34 -32 c-63 -60 -43 -145 43 -181 102 -44 223 14 223 106 0 40 -28 85 -59 95
-15 4 -22 32 -41 159 l-23 154 21 27 c46 58 10 135 -63 135 -25 0 -44 -8 -60
-25z m96 4 c50 -26 43 -107 -11 -129 -23 -9 -34 -9 -58 4 -49 25 -56 72 -17
111 26 27 54 31 86 14z m-17 -176 c3 -16 8 -79 12 -140 l6 -113 -31 0 -31 0 0
88 c0 119 10 192 26 192 7 0 15 -12 18 -27z m41 -164 c14 -92 13 -112 -4 -93
-9 9 -24 200 -15 191 3 -3 11 -47 19 -98z m-100 -97 c-13 -14 -16 13 -8 94 l8
89 3 -89 c2 -49 0 -91 -3 -94z m121 -21 c73 -33 94 -93 52 -146 -41 -53 -115
-68 -187 -39 -79 31 -95 104 -36 160 50 47 105 55 171 25z"/>
<path d="M926 1521 c-25 -28 -5 -63 32 -59 30 3 42 39 22 64 -17 19 -34 18
-54 -5z m50 -12 c10 -17 -23 -46 -37 -32 -7 7 -9 19 -6 27 7 18 33 21 43 5z"/>
<path d="M916 1059 c-33 -26 -33 -52 0 -78 51 -40 124 -17 124 39 0 56 -73 79
-124 39z m102 -11 c21 -18 10 -52 -21 -66 -47 -23 -106 12 -91 52 13 33 79 41
112 14z"/>
<path d="M746 1491 c-10 -16 16 -62 32 -56 9 3 18 -6 25 -25 13 -33 27 -40 27
-12 0 37 -13 62 -31 62 -10 0 -24 9 -32 21 -9 11 -18 16 -21 10z"/>
<path d="M808 1357 c-9 -20 0 -75 13 -83 15 -9 10 -56 -7 -75 -9 -10 -17 -40
-19 -71 -3 -67 -14 -108 -29 -108 -15 -1 -48 -48 -44 -62 3 -7 13 2 23 20 11
18 25 32 32 32 19 0 35 37 32 73 -5 47 11 118 27 124 18 7 18 70 0 80 -8 4
-16 26 -18 48 -2 28 -5 35 -10 22z"/>
<path d="M9010 1964 c-121 -21 -154 -30 -217 -55 -216 -90 -384 -287 -440
-517 -21 -88 -21 -256 0 -344 66 -272 283 -489 555 -555 88 -21 256 -21 344 0
272 66 489 283 555 555 21 88 21 256 0 344 -66 270 -286 492 -550 553 -67 15
-206 26 -247 19z m242 -90 c226 -58 423 -255 484 -484 24 -90 24 -245 0 -337
-34 -134 -33 -136 -131 178 -49 156 -88 291 -87 299 1 8 4 30 8 48 10 49 -16
82 -66 82 -30 0 -43 -6 -59 -26 -25 -31 -26 -52 -7 -80 13 -18 8 -50 -52 -302
-37 -155 -69 -282 -72 -282 -3 0 -35 90 -72 200 -58 175 -65 204 -55 229 32
86 -87 139 -133 59 -12 -22 -12 -33 -3 -59 11 -28 6 -46 -48 -196 -33 -91 -63
-172 -67 -179 -12 -22 -153 505 -142 527 15 26 12 62 -6 87 -11 16 -25 22 -53
22 -59 0 -93 -51 -67 -101 12 -23 5 -52 -65 -305 -43 -153 -79 -286 -79 -295
0 -18 48 -36 60 -22 4 4 38 121 76 260 38 139 72 249 75 245 3 -4 46 -152 94
-329 49 -178 91 -323 94 -323 3 0 43 105 89 233 46 127 89 246 96 262 12 29
17 17 112 -267 54 -164 101 -298 104 -298 4 0 44 159 89 353 46 193 87 358 90
365 4 7 24 -43 45 -110 20 -68 57 -187 82 -265 l45 -142 31 6 31 6 -29 -54
c-45 -84 -174 -207 -269 -256 -113 -58 -189 -77 -315 -77 -192 0 -339 62 -476
198 -136 137 -198 285 -197 476 0 193 61 339 197 476 175 175 411 240 648 178z"/>
<path d="M3600 1431 c-25 -48 5 -57 38 -11 l23 30 -25 0 c-15 0 -30 -8 -36
-19z"/>
<path d="M6982 1425 c-15 -33 -15 -35 1 -35 14 0 57 41 57 53 0 4 -11 7 -23 7
-16 0 -28 -9 -35 -25z"/>
<path d="M1605 1358 c-2 -7 -25 -69 -50 -137 -25 -69 -45 -128 -45 -133 0 -4
11 -8 24 -8 19 0 27 8 36 35 l12 36 61 -3 c60 -3 62 -4 71 -35 7 -27 14 -33
37 -33 16 0 29 2 29 4 0 2 -22 66 -50 142 -27 76 -50 139 -50 141 0 10 -71 1
-75 -9z m74 -145 c1 -9 -13 -13 -39 -13 -22 0 -40 2 -40 4 0 4 27 82 36 106 4
10 13 -3 24 -35 10 -27 19 -56 19 -62z"/>
<path d="M1863 1355 c-35 -15 -49 -48 -39 -90 7 -27 41 -47 114 -65 43 -11 55
-33 30 -58 -26 -26 -108 -5 -108 27 0 5 -11 6 -25 3 -47 -9 -17 -65 44 -83 79
-24 151 12 151 74 0 48 -17 65 -90 90 -51 17 -65 26 -65 42 0 30 69 34 87 6
15 -25 58 -28 58 -5 0 28 -19 52 -51 63 -41 14 -67 13 -106 -4z"/>
<path d="M2161 1357 c-45 -16 -72 -54 -78 -110 -10 -90 31 -150 111 -162 91
-14 156 45 156 140 0 109 -85 168 -189 132z m98 -47 c45 -24 51 -120 10 -161
-28 -28 -80 -25 -109 6 -52 55 -17 165 52 165 16 0 37 -4 47 -10z"/>
<path d="M2465 1356 c-48 -21 -69 -61 -70 -133 0 -47 5 -68 21 -90 28 -37 83
-57 130 -49 39 8 84 45 84 71 0 19 -43 38 -49 21 -16 -46 -76 -61 -111 -26
-15 15 -20 33 -20 75 0 42 5 60 20 75 27 27 74 26 97 -3 11 -14 26 -21 41 -19
26 4 25 3 11 36 -13 28 -64 56 -101 56 -12 -1 -37 -7 -53 -14z"/>
<path d="M2690 1225 l0 -145 25 0 25 0 0 145 0 145 -25 0 -25 0 0 -145z"/>
<path d="M2875 1358 c-2 -7 -25 -69 -50 -137 -25 -69 -45 -128 -45 -133 0 -4
11 -8 24 -8 19 0 27 8 36 35 l12 36 61 -3 c60 -3 62 -4 71 -35 7 -27 14 -33
37 -33 16 0 29 2 29 4 0 2 -22 66 -50 142 -27 76 -50 139 -50 141 0 10 -71 1
-75 -9z m74 -145 c1 -9 -13 -13 -39 -13 -22 0 -40 2 -40 4 0 4 27 82 36 106 4
10 13 -3 24 -35 10 -27 19 -56 19 -62z"/>
<path d="M3155 1356 c-48 -21 -69 -61 -70 -133 0 -47 5 -68 21 -90 28 -37 83
-57 130 -49 39 8 84 45 84 71 0 19 -43 38 -49 21 -16 -46 -76 -61 -111 -26
-15 15 -20 33 -20 75 0 42 5 60 20 75 27 27 74 26 97 -3 11 -14 26 -21 41 -19
26 4 25 3 11 36 -13 28 -64 56 -101 56 -12 -1 -37 -7 -53 -14z"/>
<path d="M3370 1225 l0 -145 25 0 25 0 0 145 0 145 -25 0 -25 0 0 -145z"/>
<path d="M3550 1353 c-42 -22 -70 -73 -70 -128 0 -91 64 -151 149 -140 57 7
89 28 107 70 28 68 10 158 -38 189 -39 26 -108 30 -148 9z m110 -43 c23 -12
42 -74 33 -109 -22 -95 -135 -93 -157 3 -8 34 9 92 32 106 22 12 68 13 92 0z"/>
<path d="M3800 1225 l0 -145 25 0 c24 0 24 1 27 97 l3 97 58 -97 c48 -81 62
-97 82 -97 l25 0 0 145 c0 138 -1 145 -20 145 -19 0 -20 -7 -20 -100 0 -55 -3
-100 -7 -100 -5 0 -33 45 -63 100 -49 89 -58 100 -82 100 l-28 0 0 -145z"/>
<path d="M4200 1225 l0 -145 25 0 25 0 0 113 c1 127 7 125 39 -15 21 -90 24
-98 46 -98 26 0 26 -1 62 150 l18 75 2 -90 c4 -116 8 -135 33 -135 19 0 20 7
20 145 l0 145 -39 0 -39 0 -21 -82 c-12 -46 -25 -90 -28 -98 -6 -16 -18 16
-48 123 l-16 57 -39 0 -40 0 0 -145z"/>
<path d="M4530 1270 c0 -129 13 -164 68 -181 53 -16 106 -5 132 28 17 22 20
40 20 139 l0 114 -25 0 -25 0 0 -108 c0 -119 -5 -132 -56 -132 -52 0 -64 27
-64 142 0 98 0 98 -25 98 l-25 0 0 -100z"/>
<path d="M4800 1345 c0 -23 4 -25 45 -25 l45 0 0 -120 0 -120 25 0 25 0 0 120
0 120 40 0 c36 0 40 3 40 25 l0 25 -110 0 -110 0 0 -25z"/>
<path d="M5060 1270 c0 -129 13 -164 68 -181 53 -16 106 -5 132 28 17 22 20
40 20 139 l0 114 -25 0 -25 0 0 -108 c0 -119 -5 -132 -56 -132 -52 0 -64 27
-64 142 0 98 0 98 -25 98 l-25 0 0 -100z"/>
<path d="M5425 1358 c-2 -7 -25 -69 -50 -137 -25 -69 -45 -128 -45 -133 0 -4
11 -8 24 -8 19 0 27 8 36 35 l12 36 61 -3 c60 -3 62 -4 71 -35 7 -27 14 -33
37 -33 16 0 29 2 29 4 0 2 -22 66 -50 142 -27 76 -50 139 -50 141 0 10 -71 1
-75 -9z m74 -145 c1 -9 -13 -13 -39 -13 -22 0 -40 2 -40 4 0 4 27 82 36 106 4
10 13 -3 24 -35 10 -27 19 -56 19 -62z"/>
<path d="M5640 1225 l0 -145 100 0 100 0 0 25 c0 24 -2 25 -75 25 l-75 0 0
120 0 120 -25 0 -25 0 0 -145z"/>
<path d="M5990 1225 l0 -145 25 0 25 0 0 113 c1 127 7 125 39 -15 21 -90 24
-98 46 -98 26 0 26 -1 62 150 l18 75 2 -90 c4 -116 8 -135 33 -135 19 0 20 7
20 145 l0 145 -39 0 -39 0 -21 -82 c-12 -46 -25 -90 -28 -98 -6 -16 -18 16
-48 123 l-16 57 -39 0 -40 0 0 -145z"/>
<path d="M6320 1225 l0 -145 105 0 105 0 0 25 c0 25 -1 25 -80 25 l-80 0 0 40
0 40 75 0 c73 0 75 1 75 25 0 24 -2 25 -75 25 l-75 0 0 30 0 30 80 0 c79 0 80
0 80 25 l0 25 -105 0 -105 0 0 -145z"/>
<path d="M6655 1356 c-48 -21 -69 -61 -70 -133 0 -47 5 -68 21 -90 28 -37 83
-57 130 -49 39 8 84 45 84 71 0 19 -43 38 -49 21 -16 -46 -76 -61 -111 -26
-15 15 -20 33 -20 75 0 42 5 60 20 75 27 27 74 26 97 -3 11 -14 26 -21 41 -19
26 4 25 3 11 36 -13 28 -64 56 -101 56 -12 -1 -37 -7 -53 -14z"/>
<path d="M6938 1323 c-9 -27 -32 -92 -52 -145 l-36 -98 26 0 c19 0 28 8 40 35
14 34 15 35 73 35 59 0 60 0 71 -35 10 -29 16 -35 40 -35 l29 0 -46 128 c-25
70 -48 135 -50 145 -4 12 -16 17 -42 17 -35 0 -38 -2 -53 -47z m76 -67 c9 -27
16 -51 16 -53 0 -2 -18 -3 -40 -3 -22 0 -40 3 -40 7 0 21 35 112 41 106 3 -5
14 -30 23 -57z"/>
<path d="M7170 1225 l0 -145 25 0 c24 0 24 1 27 97 l3 97 58 -97 c48 -81 62
-97 82 -97 l25 0 0 145 c0 138 -1 145 -20 145 -19 0 -20 -7 -20 -100 0 -55 -3
-100 -7 -100 -5 0 -33 45 -63 100 -49 89 -58 100 -82 100 l-28 0 0 -145z"/>
<path d="M7460 1225 l0 -145 25 0 25 0 0 145 0 145 -25 0 -25 0 0 -145z"/>
<path d="M7635 1356 c-48 -21 -69 -61 -70 -133 0 -47 5 -68 21 -90 28 -37 83
-57 130 -49 39 8 84 45 84 71 0 19 -43 38 -49 21 -16 -46 -76 -61 -111 -26
-15 15 -20 33 -20 75 0 42 5 60 20 75 27 27 74 26 97 -3 11 -14 26 -21 41 -19
26 4 25 3 11 36 -13 28 -64 56 -101 56 -12 -1 -37 -7 -53 -14z"/>
<path d="M7935 1358 c-2 -7 -25 -69 -50 -137 -25 -69 -45 -128 -45 -133 0 -4
11 -8 24 -8 19 0 27 8 36 35 l12 36 61 -3 c60 -3 62 -4 71 -35 7 -27 14 -33
37 -33 16 0 29 2 29 4 0 2 -22 66 -50 142 -27 76 -50 139 -50 141 0 10 -71 1
-75 -9z m74 -145 c1 -9 -13 -13 -39 -13 -22 0 -40 2 -40 4 0 4 27 82 36 106 4
10 13 -3 24 -35 10 -27 19 -56 19 -62z"/>
<path d="M228 512 c2 -70 8 -129 13 -130 32 -12 156 -112 169 -137 8 -16 22
-35 30 -42 12 -10 13 -15 2 -32 -10 -18 -10 -21 3 -21 8 0 15 -6 15 -14 0 -8
4 -18 10 -21 7 -4 7 3 0 20 -13 34 -13 72 1 80 14 9 40 -27 28 -39 -18 -19 -7
-86 14 -86 7 0 7 4 -1 12 -16 16 -15 53 1 67 19 15 27 4 21 -29 -7 -32 27 -71
60 -69 19 2 19 2 -2 6 -28 6 -59 50 -45 64 7 7 22 -2 47 -25 36 -36 78 -47 91
-25 4 6 13 8 21 5 28 -11 13 4 -29 29 -24 14 -50 25 -58 25 -8 -1 1 -9 20 -18
36 -18 53 -42 28 -42 -18 0 -88 51 -141 102 -30 29 -47 37 -63 33 -38 -9 -53
27 -53 128 0 70 3 89 16 94 11 4 3 12 -27 27 -45 22 -96 67 -145 128 l-29 37
3 -127z"/>
<path d="M1039 579 c-26 -31 -67 -69 -92 -86 -33 -21 -43 -33 -37 -43 5 -8 12
-54 16 -102 l6 -87 75 50 c41 28 76 56 79 63 2 7 3 68 2 137 l-3 124 -46 -56z"/>
<path d="M450 446 c0 -2 8 -10 18 -17 15 -13 16 -12 3 4 -13 16 -21 21 -21 13z"/>
<path d="M868 443 c7 -3 16 -2 19 1 4 3 -2 6 -13 5 -11 0 -14 -3 -6 -6z"/>
<path d="M596 433 c-4 -4 -31 -10 -59 -14 l-52 -6 45 -1 c25 -1 56 5 70 13 14
8 20 14 14 15 -6 0 -14 -3 -18 -7z"/>
<path d="M678 433 c6 -2 18 -2 25 0 6 3 1 5 -13 5 -14 0 -19 -2 -12 -5z"/>
<path d="M730 428 c0 -4 -17 -10 -37 -13 -73 -12 -123 -42 -143 -87 -14 -31
-16 -46 -8 -55 16 -20 46 -15 72 11 51 50 124 37 203 -35 24 -22 48 -39 55
-39 31 0 58 14 58 28 0 13 -2 13 -18 -1 -10 -10 -25 -17 -34 -17 -21 0 -70 48
-65 63 5 16 -76 40 -132 39 -33 -1 -51 -8 -71 -27 -44 -42 -69 -28 -51 28 17
52 83 79 224 94 76 7 80 18 6 18 -32 0 -59 -3 -59 -7z"/>
<path d="M750 213 c0 -4 20 -21 44 -38 36 -25 42 -33 33 -45 -7 -8 -2 -6 11 4
l22 19 -28 14 c-15 8 -34 20 -42 27 -23 20 -40 28 -40 19z"/>
<path d="M900 173 l-25 -25 28 17 c15 10 27 21 27 26 0 12 -2 11 -30 -18z"/>
<path d="M386 165 c4 -8 11 -15 16 -15 6 0 5 6 -2 15 -7 8 -14 15 -16 15 -2 0
-1 -7 2 -15z"/>
<path d="M710 159 c14 -11 33 -27 43 -35 9 -7 27 -14 40 -13 l22 0 -23 9 c-13
6 -38 21 -56 35 -39 30 -62 33 -26 4z"/>
</g>
</svg>
